<?xml version="1.0" encoding="iso-8859-1"?>
<!-- Generator: Adobe Illustrator 16.0.0, SVG Export Plug-In . SVG Version: 6.00 Build 0)  -->
<!DOCTYPE svg PUBLIC "-//W3C//DTD SVG 1.1//EN" "http://www.w3.org/Graphics/SVG/1.1/DTD/svg11.dtd">
<svg version="1.1" id="Capa_1" xmlns="http://www.w3.org/2000/svg" xmlns:xlink="http://www.w3.org/1999/xlink" x="0px" y="0px"
	 width="118.095px" height="118.095px" viewBox="0 0 118.095 118.095" style="enable-background:new 0 0 118.095 118.095;"
	 xml:space="preserve">
<g>
	<g>
		<circle cx="47.317" cy="31.666" r="13.282"/>
		<path d="M103.425,47.226c-0.327-2.012-2.225-3.377-4.236-3.049l-22.942,3.736l-15.581-4.584c-0.168-0.049-0.35-0.093-0.524-0.127
			c-0.877-0.168-1.743-0.118-2.549,0.104c-1.281-0.026-2.586,0.142-3.875,0.544c-2.087,0.652-3.866,1.818-5.258,3.31
			c-0.737,0.363-1.407,0.888-1.947,1.579L36.466,61.609l-0.309,0.395c-0.646,0.833-0.98,1.908-0.854,3.039l1.3,11.579l0.698,5.801
			l0.384,2.929l0.216,1.504l0.137,0.832l0.099,0.545c0.097,0.453,0.245,0.906,0.431,1.322c0.922,1.815,3.143,2.539,4.957,1.616
			c1.815-0.922,2.54-3.142,1.617-4.957c0.132,0.181,0.228,0.397,0.271,0.616l0.014,0.081l-0.002-0.037l-0.005-0.072l-0.009-0.146
			l-0.037-0.606l-0.062-1.382l-0.093-2.852l-0.126-5.768l-0.132-9.393l2.349-2.471l6.065,19.418
			c0.485,1.553,1.257,2.935,2.231,4.115l-0.357,10.391l-18.332,5.192c-1.923,0.542-3.181,2.45-2.861,4.474
			c0.344,2.183,2.393,3.674,4.576,3.33l23.018-3.627c2.135-0.338,3.881-2.055,4.152-4.307l0.064-0.542l1.285-10.678
			c0.494-0.089,0.986-0.201,1.478-0.354c0.726-0.227,1.407-0.521,2.056-0.863l9.832,14.438l-8.547,5.558
			c-1.643,1.065-2.297,3.203-1.454,5.033c0.927,2.01,3.304,2.889,5.313,1.963l14.361-6.617c0.139-0.062,0.279-0.137,0.414-0.215
			c2.287-1.336,3.059-4.273,1.723-6.562l-0.271-0.468L78.219,80.174c-0.067-0.116-0.147-0.244-0.226-0.357
			c-0.258-0.377-0.553-0.713-0.872-1.015c-0.08-0.819-0.243-1.644-0.498-2.461l-6.15-19.689l4.333,0.835l0.461,0.089
			c0.533,0.101,1.098,0.088,1.659-0.056l23.778-6.127C102.526,50.918,103.733,49.121,103.425,47.226z"/>
		<path d="M85.846,0.788L85.21,0l-8.887,7.19c0.271,0.218,0.537,0.435,0.807,0.651L85.846,0.788z"/>
		<path d="M75.521,9.145c-0.27-0.217-0.539-0.434-0.805-0.651l-5.723,4.629c0.27,0.217,0.539,0.434,0.807,0.651L75.521,9.145z"/>
		<path d="M58.408,22.991l9.783-7.915c-0.27-0.217-0.535-0.434-0.806-0.651l-9.832,7.957C57.855,22.569,58.137,22.774,58.408,22.991
			z"/>
		<path d="M35.791,39.994L21.993,51.16c0.012,0.43,0.018,0.86,0.016,1.289L36.3,40.886C36.115,40.597,35.945,40.3,35.791,39.994z"/>
		<path d="M15.258,57.911l4.699-3.802c0.015-0.439,0.018-0.88,0.022-1.319l-5.357,4.333L15.258,57.911z"/>
		<polygon points="65.202,24.546 65.196,23.533 59.591,24.08 		"/>
		<polygon points="57.985,16.566 57.309,20.079 58.944,16.896 		"/>
		<polygon points="34.798,38.995 29.188,38.529 29.196,39.542 		"/>
		<polygon points="36.406,46.509 37.081,42.996 35.448,46.18 		"/>
	</g>
</g>
<g>
</g>
<g>
</g>
<g>
</g>
<g>
</g>
<g>
</g>
<g>
</g>
<g>
</g>
<g>
</g>
<g>
</g>
<g>
</g>
<g>
</g>
<g>
</g>
<g>
</g>
<g>
</g>
<g>
</g>
</svg>
